<?xml version="1.0" encoding="utf-8"?>
<!-- Generator: Adobe Illustrator 23.0.3, SVG Export Plug-In . SVG Version: 6.00 Build 0)  -->
<svg version="1.1" id="Layer_1" xmlns="http://www.w3.org/2000/svg" xmlns:xlink="http://www.w3.org/1999/xlink" x="0px" y="0px"
	 viewBox="0 0 248.5 191.5" style="enable-background:new 0 0 248.5 191.5;" xml:space="preserve">
<style type="text/css">
	.st0{fill:#907235;}
	.st1{fill:none;stroke:#2A0F10;stroke-width:0.5;stroke-linecap:round;stroke-linejoin:round;stroke-miterlimit:10;}
	.st2{fill:#683513;}
	.st3{fill:#4C230C;}
	.st4{fill:#89471A;}
	.st5{fill:#77370B;}
	.st6{fill:none;stroke:#27110D;stroke-width:0.5;stroke-linecap:round;stroke-linejoin:round;stroke-miterlimit:10;}
	.st7{fill:#86452B;}
	.st8{fill:#27110D;}
</style>
<g>
	<g>
		<path class="st0" d="M83,28.2c4.6-0.1,8.6,3.4,11.1,7.3c2.5,3.9,4,8.4,6.8,12.1c1.8,2.4,4.1,4.5,6.8,6c-5.3,0.2-10.5-0.4-15.6-1.8
			c-4.2-1.2-8.4-3-11.7-5.9C74.5,40.5,71.4,28.4,83,28.2z"/>
		<path class="st1" d="M81.2,32.6c4.2,1,7.9,3.8,10,7.7"/>
	</g>
	<path class="st2" d="M223.5,71.5c6,8.7,9.1,19,12.9,28.9c1.7,4.3,3.6,8.7,7.2,11.7c1.4,1.2,4.2,2.7,4.8,4.6
		c0.6,2.1-0.8,2.2-2.6,1.4c-9.2-3.7-14.5-13.2-18.7-22.2c-4.2-9-8.6-18.7-17.2-23.7c-3.6-2.1-7.9-3.3-10.9-6.3
		c-1.8-1.7-4.1-6.3-1.6-8.4c2.1-1.8,7.1-0.1,9.3,0.6C213.5,60.5,219.4,65.6,223.5,71.5z"/>
	<path class="st3" d="M186.8,69.4c4,9.1,3.8,19.3,2.5,29c-1.3,9.9-4.4,17.5-0.3,27.3c1.9,4.4,4.7,8.5,5.3,13.2
		c0.5,3.6-0.4,7.2-1.2,10.6c-1.3,5.3-2.6,10.5-3.8,15.8c-0.6,2.7-0.3,5.3-1.4,7.9c-0.3,0.7-0.6,1.3-1,1.8c-0.6,0.7-1.5,1.1-2.3,1.5
		c-2.4,1-5,1.5-7.6,1.6c-0.9,0-1.8-0.1-2.6-0.4c-0.8-0.4-1.5-1.1-1.6-2c-0.1-1,0.5-1.9,1.2-2.6c1.8-1.8,4.3-2.8,5.6-4.9
		c1.6-2.5,1.6-6.2,1.9-9.1c0.8-10.5-1.7-18.7-9.7-26c-3.8-3.5-8.1-6.6-11.3-10.7c-4.7-6.2-7.9-15.4-9.6-22.9c-1.9-8.4-3-17.4-1.5-26
		c1.1-6,3.9-11.8,8.6-15.7c4.4-3.6,12.5-6.1,17.9-3.3C180.9,57.2,184.7,64.6,186.8,69.4z"/>
	<path class="st3" d="M58.5,110.7c1.6,6,3.5,12,6,17.6c5.4,12,8.8,24.5,7,37.8c-0.2,1.6-0.5,3.3-1.3,4.7c-1.9,3-6.3,4.2-6.9,7.6
		c-0.1,0.6-0.1,1.3,0.3,1.8c0.6,0.9,1.8,1.1,2.9,1.1c2.8,0.1,5.7,0.2,8.4-0.7c8.9-2.8,7.2-14.6,8.2-22.1c1.1-7.7,1.7-15.5,1-23.3
		c-0.4-4.5-1.2-9-0.5-13.4c0.9-7,5.3-13.2,4.9-20.3c-0.4-6.4-2.8-13.1-7.9-17.2c-5.4-4.4-28.4-10.2-26.7,2
		C54.9,94.4,56.4,102.6,58.5,110.7z"/>
	<path class="st2" d="M55.3,91.7c0.9,2.5,1.8,5,2.9,7.4c2,4.7,4.2,8.7,7.9,12.2c3.6,3.5,7.7,6.6,12.3,8.7c0.1,0,0.2,0.1,0.3,0.1
		c4.8,2.2,10.1,3.3,15.4,3.7c36.3,3,69.1-23.6,105.4-25.9c5-0.3,10.5-0.4,14.1-3.8c3.8-3.5,4.1-9.5,3.4-14.6
		c-0.6-4.3-1.7-8.6-4-12.2c-4.1-6.5-11.4-10.2-18.7-12.4c-17.8-5.3-36.9-2.8-55.4-1.7c-8.1,0.5-16.2,0.8-24.2-0.7
		c-7.6-1.4-14.9-4.3-21.8-7.9c-10.3-5.5-19.8-12.8-26.5-22.3c-0.8-1.1-1.7-2.3-3-2.5c-0.7-0.1-1.3,0.1-1.9,0.4
		c-10.8,3.9-20.3,11.5-26.6,21.1c-4.1,6.3-1.9,8.1,2.3,13.4c4,5,7.4,10.5,10.3,16.3C50.7,77.7,52.8,84.8,55.3,91.7z"/>
	<g>
		<path class="st4" d="M13.9,7.4c-1.1,1.9-2.3,3.8-3.4,5.6C9,15.5,7.5,18,6,20.5c-0.7,1.1-1.4,2.5-0.8,3.7c0.5,1,1.7,1.4,2.8,1.6
			c3.4,0.6,7-0.2,10.1-1.8c3.1-1.6,5.8-4,8.1-6.6c1-1.2,2-2.4,2.6-3.9c1.3-3.5-1.4-6.9-4.3-8.6C20,2.5,16.6,3.1,13.9,7.4z"/>
		<path class="st2" d="M42.7,1.9c-2.7,0.2-5.3,0.8-7.9,1.1c-2.9,0.2-5.9-0.1-8.8,0.6c-4.4,1-8.2,4.5-9.6,8.8c-0.6,1.9-0.9,3.9-2,5.6
			c-1.2,1.8-3.4,2.8-5.4,3.7c-2.1,0.9-4.1,1.8-6.2,2.7c-0.7,0.3-1.4,0.6-1.9,1.2c-0.5,0.6-0.7,1.5-0.7,2.3c-0.4,5.1,2,10.4,6.2,13.5
			c0.4,0.3,0.9,0.6,1.1,1c0.4,0.6,0.4,1.3,0.6,2c0.6,2.8,3.1,5,5.8,6.1c2.7,1,5.7,1.2,8.6,1.2c9.9,0.2,20.4,1.5,29.3-3.6
			c4.9-2.9,9.1-7,11.9-11.9c2.8-4.9,5.4-10.6,4.9-16.4c-0.5-5.7-3.8-11-8.4-14.2C55.6,1.9,48.4,1.4,42.7,1.9z"/>
		<g>
			<path class="st5" d="M10.3,32c0.2,0.2,0.2,0.6,0,0.8c-0.2,0.2-0.6,0.2-0.8,0c-0.2-0.2-0.2-0.6,0-0.8C9.8,31.8,10.1,31.8,10.3,32z
				"/>
			<path class="st5" d="M13.7,32.6c0.2,0.2,0.2,0.6,0,0.8c-0.2,0.2-0.6,0.2-0.8,0c-0.2-0.2-0.2-0.6,0-0.8
				C13.2,32.4,13.5,32.4,13.7,32.6z"/>
			<path class="st5" d="M14.1,30.1c0.2,0.2,0.2,0.6,0,0.8c-0.2,0.2-0.6,0.2-0.8,0c-0.2-0.2-0.2-0.6,0-0.8
				C13.5,29.9,13.9,29.9,14.1,30.1z"/>
		</g>
		<g>
			<path class="st6" d="M5.1,32.8c0.4,1.6,0.8,3.3,1.6,4.8c0.8,1.5,2,2.8,3.6,3.4"/>
			<path class="st6" d="M9.4,40.7c2.4,0.4,4.9,0.8,7.3,1.2c3.2,0.5,6.5,1.1,9.7,0.3c3-0.7,5.6-2.7,7.2-5.3"/>
			<path class="st6" d="M32.6,36.8c1.3-0.2,2.7,0.4,3.4,1.6"/>
			<path class="st6" d="M10,40.9c-0.6,0.9-2,1.2-2.9,0.6"/>
		</g>
		<g>
			<path class="st7" d="M3.6,25.3c-0.7,0.1-1.6,0.3-2,0.8c-0.3,0.3-0.4,0.8-0.4,1.2c-0.2,1.8,1.1,3.4,2.3,4.8c0.4,0.5,0.8,0.9,1.4,1
				c0.8,0.1,1.4-0.6,1.7-1.4c0.3-0.7,0.5-1.5,1.1-2c0.8-0.7,2.2-0.7,2.8-1.6c0.2-0.3,0.3-0.6,0.3-1C10.9,23.9,5.4,25,3.6,25.3z"/>
			<path class="st6" d="M7.2,29.9c0.3-0.8,0.8-1.5,1.4-2"/>
			<path class="st6" d="M2.1,30c-0.2-0.5-0.2-1-0.3-1.5"/>
		</g>
		<path class="st8" d="M35.6,17.9c0,1.7-1.3,3.1-3,3.1c-1.7,0-3.1-1.3-3.1-3c0-1.7,1.3-3.1,3-3.1C34.2,14.8,35.6,16.2,35.6,17.9z"/>
		<path class="st8" d="M18.6,17.9c-0.4,1.5-1.3,2.6-1.9,2.4c-0.7-0.2-0.8-1.5-0.4-3c0.4-1.5,1.3-2.6,1.9-2.4
			C18.8,15,19,16.4,18.6,17.9z"/>
		<path class="st4" d="M50.2,0.6c-0.3-0.1-0.7-0.1-1-0.2c-0.5,0-0.9-0.1-1.4,0c-1.7,0.3-2.6,2.3-2.5,4c0.2,1.7,1.2,3.2,2.2,4.6
			c3,4,5.3,9.2,6.4,14c0.2,0.9,0.5,2,1.4,2.4c0.8,0.4,1.8-0.1,2.6-0.6c2.8-1.7,5.3-4,7.3-6.5c1.7-2.1,3.1-4.5,3.6-7.2
			c0.5-2.7,0-5.6-1.8-7.6c-0.4-0.4-0.8-0.8-1.3-1c-2.6-1.1-5.2,1-7.8,0.6C55.3,2.7,52.9,1.1,50.2,0.6z"/>
		<path class="st6" d="M30.6,11c1.4-0.8,3.2-0.7,4.8-0.2c1.5,0.5,2.9,1.5,4.3,2.4"/>
		<path class="st6" d="M18.6,12.5c0.1-0.4-0.1-0.9-0.4-1.1c-0.3-0.3-0.8-0.3-1.2-0.2"/>
	</g>
	<path class="st2" d="M71.6,121.3c0.9,2,1.8,4,2.7,6c7.9,16.5,14.8,30.3,12.3,48.9c-0.2,1.6-0.5,3.3-1.3,4.7c-1.9,3-6.3,4.2-6.9,7.6
		c-0.1,0.6-0.1,1.3,0.3,1.8c0.6,0.9,1.8,1.1,2.9,1.1c2.8,0.1,5.7,0.2,8.4-0.7c8.9-2.8,7.2-14.6,8.2-22.1c1.1-7.7,1.7-15.5,1-23.3
		c-0.4-4.5-1.2-9-0.5-13.4c0.9-7,5.3-13.2,4.9-20.3c-0.4-6.4-2.8-13.1-7.9-17.2c-6.3-5.1-15.3-5.3-23.4-4.5
		c-3.8,0.4-4.9,0.8-5.7,4.3c-0.8,3.5-0.2,7.8,0.3,11.3C67.7,110.9,69.5,116.2,71.6,121.3z"/>
	<path class="st2" d="M216.8,74.6c4,9.1,3.8,19.3,2.5,29c-1.3,9.9-4.4,17.5-0.3,27.3c1.9,4.4,4.7,8.5,5.3,13.2
		c0.5,3.6-0.4,7.2-1.2,10.6c-1.3,5.3-2.6,10.5-3.8,15.8c0,4.9-0.5,10.3-5.9,11.8c-2.3,0.6-4.8,0.5-7.1,0.3c-1.2-0.1-2.7-0.4-3.3-1.5
		c-0.6-1-0.2-2.3,0.4-3.2c0.7-0.9,1.7-1.5,2.5-2.2c6-4.8,6.3-13,5.3-20c-1-6.8-4.5-12.7-9.5-17.4c-3.8-3.5-8.1-6.6-11.3-10.7
		c-4.7-6.2-7.9-15.4-9.6-22.9c-1.9-8.4-3-17.4-1.5-26c1.1-6,3.9-11.8,8.6-15.7c4.4-3.6,12.5-6.1,17.9-3.3
		C210.9,62.4,214.7,69.8,216.8,74.6z"/>
	<path class="st6" d="M43,50.6c1.9-0.7,3.8-1.4,5.8-2.2c1.6-0.6,3.1-1.2,4.6-1.9c3.7-1.9,6.7-5.1,8.5-8.8"/>
	<g>
		<path class="st0" d="M59.9,57.3c-4.1,5.5-9.1,10.7-15.3,13.5c0,2.3,3,3.5,3.7,5.7c0.3,0.8,0.3,1.7,0.3,2.5c0.2,1.9,1,3.6,1.7,5.3
			c3.2,7,6.5,13.8,9.9,20.7c0.6,1.1,1.5,2.5,2.8,2.2c0.5-0.1,0.9-0.6,1.3-1c1.2-1.4,2.1-3,2.9-4.6c10.3-19.7,15-42.3,13.2-64.4
			c-0.1-1.1-0.2-2.2-0.9-3.1c-0.7-0.9-1.8-1.1-2.8-0.7c-0.6-1.9-1.8-6.2-3.9-4c-1.5,1.6-2,6.7-2.7,8.8
			C67.7,44.9,64.2,51.4,59.9,57.3z"/>
		<g>
			<path class="st1" d="M76.6,38.8c-2,16.3-4.3,33.4-14.1,46.7"/>
			<path class="st1" d="M72.3,46.4c-1.8,6.1-4.7,11.9-7.5,17.6c-2.3,4.6-4.6,9.3-8.5,12.6"/>
		</g>
	</g>
	<path class="st6" d="M68.9,113.9c-0.6-2-1.1-4-1.7-6"/>
	<path class="st6" d="M101.4,124c2.4-4.4,4.5-9,6.3-13.7"/>
	<path class="st6" d="M180.5,101.8c-0.2-2.8-0.5-5.5-0.7-8.3"/>
	<path class="st6" d="M174,177.3c0-1.3,0.6-2.6,1.6-3.5"/>
	<path class="st6" d="M177.8,178.1c-0.1-1.2,0.3-2.4,1.2-3.1"/>
	<path class="st6" d="M204,182c0.1-1.3,0.7-2.6,1.6-3.5"/>
	<path class="st6" d="M208.8,182.7c0.5-1.3,1-2.6,1.7-3.8"/>
	<path class="st6" d="M205.6,137.2c1-1.3,1.5-2.9,1.5-4.6"/>
	<path class="st6" d="M174.6,130.6c0.9-1.2,1.7-2.6,2.3-4"/>
	<path class="st6" d="M80.3,191.1c0.3-1.5,1-2.9,2-4"/>
	<path class="st6" d="M84.1,191.3c0.6-1.4,1.4-2.8,2.3-4.1"/>
	<path class="st6" d="M64.9,180.5c0.1-1.2,0.6-2.3,1.3-3.3"/>
	<path class="st6" d="M69.1,181.3c0.1-1.5,0.6-3,1.4-4.2"/>
	<path class="st6" d="M87.6,150.8c1.6-0.8,3-2.2,3.8-3.7"/>
	<path class="st6" d="M71.6,140.3c1.5-0.8,2.6-2.2,3.1-3.7"/>
	<path class="st6" d="M58,4.8c1.7,2.5,3.1,5.2,4.2,8"/>
</g>
</svg>
